# xmcd
#
# Track frame offsets:
# 150
# 2205
# 12935
# 26275
# 39156
# 59284
# 69767
# 85857
# 99302
# 107687
# 121238
# 140291
# 154301
# 177656
# 190819
# 201073
# 215894
# 237891
# 264561
# 274533
# 283323
# 296010
#
# Disc length: 4118 seconds
#
#
# Revision: 4
# Processed by: cddbd v1.5.1PL0 Copyright (c) Steve Scherf et al.
# Submitted via: FreeRIP 2.70 
#
DISCID=37101416
DTITLE=Charlie Brown Jr - Charlie Brown Jr
DYEAR=1900
DGENRE=
TTITLE0=TRIBUTO AO FRANGO DA MALÁSIA
TTITLE1=O CORO VAI COMER
TTITLE2=TUDO O QUE ELA GOSTA DE ESCUTAR
TTITLE3=GIMME O ANEL
TTITLE4=EU PROTESTO
TTITLE5=HOJE EU ACORDEI FELIZ
TTITLE6=LUGAR AO SOL
TTITLE7=VOCÊ VAI DE LIMUSINE, E EU VOU DE TREM
TTITLE8=O LADO CERTO DA VIDA ERRADA
TTITLE9=CONFISCO
TTITLE10=ZOIO DE LULA
TTITLE11=TE LEVAR
TTITLE12=NÃO DEIXE O MAR TE ENGOLIR
TTITLE13=PUXA CARRO
TTITLE14=RUBÃO
TTITLE15=ROLÊ
TTITLE16=NÃO É SÉRIO
TTITLE17=A BANCA
TTITLE18=LOCAL
TTITLE19=DO SURF
TTITLE20=CORRA VAGABUNDO
TTITLE21=FESTA
EXTD=
EXTT0=
EXTT1=
EXTT2=
EXTT3=
EXTT4=
EXTT5=
EXTT6=
EXTT7=
EXTT8=
EXTT9=
EXTT10=
EXTT11=
EXTT12=
EXTT13=
EXTT14=
EXTT15=
EXTT16=
EXTT17=
EXTT18=
EXTT19=
EXTT20=
EXTT21=
PLAYORDER=
